<svg width="405" height="831" viewBox="0 0 405 831" fill="none" xmlns="http://www.w3.org/2000/svg">
<g opacity="0.1">
<path d="M621.559 655.171C623.389 656.998 626.356 657 628.158 655.146C672.117 609.913 701.362 552.419 711.985 490.213C722.871 426.468 713.665 360.921 685.641 302.625C657.616 244.33 612.154 196.164 555.537 164.781C498.919 133.398 433.94 120.346 369.574 127.429C305.209 134.513 244.635 161.381 196.219 204.323C147.804 247.265 113.936 304.161 99.2958 367.151C84.6552 430.141 89.964 496.118 114.489 555.965C138.422 614.37 179.503 664.125 232.272 698.714C234.434 700.131 237.328 699.483 238.716 697.302V697.302C240.105 695.117 239.456 692.221 237.291 690.801C186.167 657.254 146.365 609.024 123.169 552.418C99.3796 494.366 94.2301 430.369 108.431 369.268C122.633 308.168 155.484 252.979 202.447 211.325C249.41 169.671 308.167 143.609 370.602 136.738C433.036 129.868 496.066 142.528 550.985 172.969C605.904 203.411 650.002 250.132 677.186 306.679C704.37 363.225 713.299 426.806 702.74 488.638C692.444 548.928 664.115 604.655 621.534 648.514C619.73 650.372 619.726 653.341 621.559 655.171V655.171Z" fill="#313131"/>
<path d="M629.699 645.774C631.375 647.454 634.1 647.455 635.751 645.75C684.13 595.796 712.727 529.847 716.098 460.222C719.538 389.163 696.455 319.366 651.346 264.427C606.237 209.489 542.332 173.344 472.081 163.035C401.83 152.726 330.265 168.99 271.327 208.66C212.389 248.329 170.301 308.563 153.26 377.626C136.22 446.689 145.448 519.635 179.148 582.254C212.847 644.872 268.604 692.677 335.556 716.357C401.159 739.559 472.907 737.969 537.356 711.98C539.553 711.094 540.58 708.577 539.664 706.392V706.392C538.747 704.203 536.227 703.177 534.025 704.064C471.543 729.223 402 730.747 338.41 708.256C273.466 685.287 219.382 638.916 186.694 578.176C154.005 517.437 145.053 446.679 161.583 379.688C178.112 312.696 218.938 254.27 276.107 215.79C333.277 177.311 402.695 161.534 470.838 171.534C538.982 181.534 600.97 216.594 644.726 269.885C688.482 323.175 710.872 390.879 707.535 459.806C704.267 527.304 676.556 591.242 629.676 639.688C628.031 641.388 628.027 644.099 629.699 645.774V645.774Z" fill="#313131"/>
<path d="M635.097 632.377C636.663 633.938 639.199 633.939 640.742 632.356C679.162 592.91 704.457 542.583 713.118 488.23C721.988 432.561 712.956 375.523 687.314 325.281C661.672 275.039 620.736 234.169 570.364 208.521C519.992 182.873 462.769 173.763 406.885 182.494C351.001 191.226 299.322 217.351 259.246 257.131C219.17 296.911 192.751 348.305 183.773 403.956C174.794 459.607 183.716 516.663 209.26 566.954C234.202 616.059 273.743 656.257 322.438 682.092C324.39 683.127 326.803 682.35 327.815 680.386V680.386C328.831 678.414 328.05 675.993 326.09 674.953C278.914 649.89 240.606 610.925 216.434 563.336C191.656 514.553 183.003 459.21 191.712 405.228C200.421 351.246 226.047 301.394 264.92 262.808C303.794 224.221 353.923 198.88 408.13 190.41C462.338 181.94 517.845 190.777 566.705 215.656C615.566 240.534 655.274 280.178 680.147 328.913C705.02 377.648 713.781 432.975 705.176 486.973C696.783 539.647 672.285 588.423 635.075 626.669C633.526 628.262 633.523 630.809 635.097 632.377V632.377Z" fill="#313131"/>
<path d="M677.57 585.158C679.41 585.935 681.535 585.074 682.284 583.222C701.08 536.797 704.966 485.636 693.35 436.853C681.454 386.896 653.923 342.043 614.766 308.827C575.609 275.611 526.873 255.767 475.656 252.186C425.642 248.688 375.813 260.877 333.091 287.005C331.387 288.047 330.884 290.284 331.951 291.973V291.973C333.019 293.661 335.252 294.161 336.956 293.12C378.377 267.814 426.674 256.012 475.151 259.402C524.832 262.876 572.106 282.124 610.088 314.344C648.07 346.564 674.775 390.071 686.314 438.529C697.574 485.814 693.819 535.402 675.621 580.408C674.873 582.259 675.731 584.38 677.57 585.158V585.158Z" fill="#313131"/>
<path d="M303.561 313.041C302.255 311.53 299.969 311.362 298.477 312.691C281.596 327.735 266.915 345.081 254.865 364.216C253.801 365.906 254.344 368.133 256.049 369.172V369.172C257.755 370.211 259.978 369.669 261.043 367.979C272.701 349.484 286.894 332.716 303.208 318.164C304.698 316.834 304.867 314.552 303.561 313.041V313.041Z" fill="#313131"/>
<path d="M622.893 656.096C624.73 658.212 627.937 658.44 630.024 656.572C670.156 620.637 701.143 575.613 720.375 525.236C740.21 473.278 746.929 417.229 739.935 362.054C732.941 306.879 712.45 254.28 680.279 208.918C648.107 163.555 605.247 126.829 555.496 101.992C505.744 77.1548 450.636 64.9737 395.054 66.5274C339.472 68.0812 285.13 83.3219 236.843 110.9C188.556 138.477 147.814 177.541 118.226 224.63C89.5371 270.286 72.1929 322.122 67.6077 375.802C67.3693 378.594 69.4792 381.019 72.2735 381.215V381.215C75.0675 381.412 77.4877 379.306 77.7274 376.515C82.1947 324.499 99.0129 274.273 126.814 230.029C155.514 184.352 195.034 146.461 241.873 119.71C288.711 92.9601 341.422 78.1765 395.337 76.6694C449.252 75.1622 502.707 86.978 550.966 111.07C599.225 135.162 640.799 170.787 672.005 214.788C703.212 258.79 723.087 309.81 729.872 363.33C736.656 416.85 730.139 471.218 710.899 521.617C692.262 570.436 662.244 614.072 623.37 648.912C621.284 650.781 621.056 653.982 622.893 656.096V656.096Z" fill="#313131"/>
<path d="M632.399 647.528C634.133 648.954 636.697 648.705 638.096 646.95C661.243 617.916 678.186 584.421 687.857 548.538C697.88 511.346 699.86 472.444 693.666 434.426C687.471 396.408 673.243 360.149 651.932 328.065C630.621 295.981 602.716 268.811 570.077 248.366C537.439 227.921 500.818 214.671 462.656 209.501C424.493 204.33 385.668 207.357 348.768 218.38C311.868 229.403 277.741 248.168 248.664 273.425C220.61 297.793 197.879 327.663 181.869 361.168C180.902 363.193 181.798 365.608 183.836 366.545V366.545C185.876 367.483 188.286 366.587 189.255 364.562C204.782 332.107 226.812 303.172 253.993 279.562C282.198 255.064 315.3 236.861 351.093 226.169C386.886 215.477 424.547 212.54 461.565 217.556C498.582 222.571 534.104 235.424 565.764 255.255C597.423 275.087 624.491 301.442 645.163 332.563C665.835 363.685 679.635 398.857 685.644 435.734C691.653 472.611 689.732 510.346 680.01 546.422C670.64 581.19 654.232 613.646 631.818 641.787C630.419 643.543 630.666 646.102 632.399 647.528V647.528Z" fill="#313131"/>
</g>
</svg>
