<svg width="48" height="48" viewBox="0 0 48 48" fill="none" xmlns="http://www.w3.org/2000/svg">
<path d="M28.75 15.56V14C28.75 13.59 28.41 13.25 28 13.25C27.59 13.25 27.25 13.59 27.25 14V15.5H20.75V14C20.75 13.59 20.41 13.25 20 13.25C19.59 13.25 19.25 13.59 19.25 14V15.56C16.55 15.81 15.24 17.42 15.04 19.81C15.02 20.1 15.26 20.34 15.54 20.34H32.46C32.75 20.34 32.99 20.09 32.96 19.81C32.76 17.42 31.45 15.81 28.75 15.56Z" fill="#E33439"/>
<path d="M32 21.8398H16C15.45 21.8398 15 22.2898 15 22.8398V28.9998C15 31.9998 16.5 33.9998 20 33.9998H28C31.5 33.9998 33 31.9998 33 28.9998V22.8398C33 22.2898 32.55 21.8398 32 21.8398ZM21.21 30.2098C21.16 30.2498 21.11 30.2998 21.06 30.3298C21 30.3698 20.94 30.3998 20.88 30.4198C20.82 30.4498 20.76 30.4698 20.7 30.4798C20.63 30.4898 20.57 30.4998 20.5 30.4998C20.37 30.4998 20.24 30.4698 20.12 30.4198C19.99 30.3698 19.89 30.2998 19.79 30.2098C19.61 30.0198 19.5 29.7598 19.5 29.4998C19.5 29.2398 19.61 28.9798 19.79 28.7898C19.89 28.6998 19.99 28.6298 20.12 28.5798C20.3 28.4998 20.5 28.4798 20.7 28.5198C20.76 28.5298 20.82 28.5498 20.88 28.5798C20.94 28.5998 21 28.6298 21.06 28.6698C21.11 28.7098 21.16 28.7498 21.21 28.7898C21.39 28.9798 21.5 29.2398 21.5 29.4998C21.5 29.7598 21.39 30.0198 21.21 30.2098ZM21.21 26.7098C21.02 26.8898 20.76 26.9998 20.5 26.9998C20.24 26.9998 19.98 26.8898 19.79 26.7098C19.61 26.5198 19.5 26.2598 19.5 25.9998C19.5 25.7398 19.61 25.4798 19.79 25.2898C20.07 25.0098 20.51 24.9198 20.88 25.0798C21.01 25.1298 21.12 25.1998 21.21 25.2898C21.39 25.4798 21.5 25.7398 21.5 25.9998C21.5 26.2598 21.39 26.5198 21.21 26.7098ZM24.71 30.2098C24.52 30.3898 24.26 30.4998 24 30.4998C23.74 30.4998 23.48 30.3898 23.29 30.2098C23.11 30.0198 23 29.7598 23 29.4998C23 29.2398 23.11 28.9798 23.29 28.7898C23.66 28.4198 24.34 28.4198 24.71 28.7898C24.89 28.9798 25 29.2398 25 29.4998C25 29.7598 24.89 30.0198 24.71 30.2098ZM24.71 26.7098C24.66 26.7498 24.61 26.7898 24.56 26.8298C24.5 26.8698 24.44 26.8998 24.38 26.9198C24.32 26.9498 24.26 26.9698 24.2 26.9798C24.13 26.9898 24.07 26.9998 24 26.9998C23.74 26.9998 23.48 26.8898 23.29 26.7098C23.11 26.5198 23 26.2598 23 25.9998C23 25.7398 23.11 25.4798 23.29 25.2898C23.38 25.1998 23.49 25.1298 23.62 25.0798C23.99 24.9198 24.43 25.0098 24.71 25.2898C24.89 25.4798 25 25.7398 25 25.9998C25 26.2598 24.89 26.5198 24.71 26.7098ZM28.21 30.2098C28.02 30.3898 27.76 30.4998 27.5 30.4998C27.24 30.4998 26.98 30.3898 26.79 30.2098C26.61 30.0198 26.5 29.7598 26.5 29.4998C26.5 29.2398 26.61 28.9798 26.79 28.7898C27.16 28.4198 27.84 28.4198 28.21 28.7898C28.39 28.9798 28.5 29.2398 28.5 29.4998C28.5 29.7598 28.39 30.0198 28.21 30.2098ZM28.21 26.7098C28.16 26.7498 28.11 26.7898 28.06 26.8298C28 26.8698 27.94 26.8998 27.88 26.9198C27.82 26.9498 27.76 26.9698 27.7 26.9798C27.63 26.9898 27.56 26.9998 27.5 26.9998C27.24 26.9998 26.98 26.8898 26.79 26.7098C26.61 26.5198 26.5 26.2598 26.5 25.9998C26.5 25.7398 26.61 25.4798 26.79 25.2898C26.89 25.1998 26.99 25.1298 27.12 25.0798C27.3 24.9998 27.5 24.9798 27.7 25.0198C27.76 25.0298 27.82 25.0498 27.88 25.0798C27.94 25.0998 28 25.1298 28.06 25.1698C28.11 25.2098 28.16 25.2498 28.21 25.2898C28.39 25.4798 28.5 25.7398 28.5 25.9998C28.5 26.2598 28.39 26.5198 28.21 26.7098Z" fill="#E33439"/>
</svg>
