<svg width="40" height="40" viewBox="0 0 40 40" fill="none" xmlns="http://www.w3.org/2000/svg">
<path d="M19.9999 36.6667C10.8166 36.6667 3.33325 29.1834 3.33325 20C3.33325 10.8167 10.8166 3.33335 19.9999 3.33335C29.1833 3.33335 36.6666 10.8167 36.6666 20C36.6666 29.1834 29.1833 36.6667 19.9999 36.6667ZM26.7666 21.2167L20.8833 15.3334C20.6333 15.0834 20.3166 14.9667 19.9999 14.9667C19.6833 14.9667 19.3666 15.0834 19.1166 15.3334L13.2333 21.2167C12.7499 21.7 12.7499 22.5 13.2333 22.9834C13.7166 23.4667 14.5166 23.4667 14.9999 22.9834L19.9999 17.9834L24.9999 22.9834C25.4833 23.4667 26.2833 23.4667 26.7666 22.9834C27.2499 22.5 27.2499 21.7167 26.7666 21.2167Z" fill="#E33439"/>
</svg>
