<svg width="48" height="49" viewBox="0 0 48 49" fill="none" xmlns="http://www.w3.org/2000/svg">
<path d="M34.4 44.8955C39.702 44.8955 44 40.5975 44 35.2955C44 29.9936 39.702 25.6956 34.4 25.6956C29.0981 25.6956 24.8 29.9936 24.8 35.2955C24.8 40.5975 29.0981 44.8955 34.4 44.8955Z" stroke="#F8F8F8" stroke-width="4" stroke-miterlimit="10" stroke-linecap="round" stroke-linejoin="round"/>
<path d="M37.9799 35.4155H30.8198" stroke="#F8F8F8" stroke-width="4" stroke-miterlimit="10" stroke-linecap="round" stroke-linejoin="round"/>
<path d="M34.3999 31.9155V39.0955" stroke="#F8F8F8" stroke-width="4" stroke-miterlimit="10" stroke-linecap="round" stroke-linejoin="round"/>
<path d="M44 18.2755C44 22.2155 42.98 25.6955 41.38 28.7155C39.62 26.8555 37.14 25.6956 34.4 25.6956C29.1 25.6956 24.8 29.9955 24.8 35.2955C24.8 37.7555 25.74 39.9956 27.26 41.6956C26.52 42.0356 25.84 42.3155 25.24 42.5155C24.56 42.7555 23.44 42.7555 22.76 42.5155C16.96 40.5355 4 32.2755 4 18.2755C4 12.0955 8.98 7.09546 15.12 7.09546C18.74 7.09546 21.98 8.85554 24 11.5555C26.02 8.85554 29.26 7.09546 32.88 7.09546C39.02 7.09546 44 12.0955 44 18.2755Z" stroke="#F8F8F8" stroke-width="4" stroke-linecap="round" stroke-linejoin="round"/>
</svg>
