<svg width="48" height="49" viewBox="0 0 48 49" fill="none" xmlns="http://www.w3.org/2000/svg">
<path d="M26 40.8955V36.8955C26 31.3727 21.5228 26.8955 16 26.8955C10.4772 26.8955 6 31.3727 6 36.8955V40.8955H26ZM26 40.8955H42V38.8955C42 33.0045 37.5228 28.8955 32 28.8955C29.1734 28.8955 26.6206 30.1465 24.8018 32.1577M22 14.8955C22 18.2092 19.3137 20.8955 16 20.8955C12.6863 20.8955 10 18.2092 10 14.8955C10 11.5818 12.6863 8.89551 16 8.89551C19.3137 8.89551 22 11.5818 22 14.8955ZM36 18.8955C36 21.1047 34.2092 22.8955 32 22.8955C29.7908 22.8955 28 21.1047 28 18.8955C28 16.6864 29.7908 14.8955 32 14.8955C34.2092 14.8955 36 16.6864 36 18.8955Z" stroke="#F8F8F8" stroke-width="4" stroke-linecap="round" stroke-linejoin="round"/>
</svg>
