<svg width="256" height="25" viewBox="0 0 256 25" fill="none" xmlns="http://www.w3.org/2000/svg">
<path fill-rule="evenodd" clip-rule="evenodd" d="M113.72 5.78175C77.0073 9.77515 71.3326 10.41 65.6558 11.0251C59.245 11.7197 52.8315 12.3891 1.71171 17.8418C0.887958 17.9297 0.148943 17.3332 0.0610756 16.5094C-0.0267915 15.6856 0.569763 14.9466 1.39352 14.8588C52.5115 9.40618 58.9239 8.73689 65.3335 8.04241C71.1184 7.41563 76.901 6.76833 115.544 2.56558C117.349 2.36931 119.993 2.04565 122.867 1.69375C125.789 1.33609 128.949 0.949252 131.708 0.637365C134.389 0.334329 136.703 0.100987 137.911 0.0592737C138.201 0.0492422 138.511 0.0464945 138.764 0.0747984L138.772 0.0756465C138.854 0.0846661 139.161 0.11834 139.463 0.28542C139.619 0.371428 140.067 0.654023 140.217 1.26398C140.38 1.927 140.064 2.41756 139.908 2.60629C139.749 2.79921 139.578 2.91216 139.501 2.96022C139.407 3.01899 139.318 3.06286 139.25 3.09367C139.115 3.15537 138.969 3.20826 138.831 3.25347C138.552 3.34564 138.182 3.44767 137.73 3.56066C129.01 5.74087 120.074 7.5542 111.151 9.36501C107.098 10.1877 103.046 11.0099 99.0189 11.8657C86.9814 14.4236 75.0961 17.293 63.735 21.4014C63.9847 21.3825 64.2375 21.3621 64.4944 21.3413L64.5259 21.3388C65.2185 21.2827 65.9427 21.224 66.6644 21.1935C80.9089 20.5916 102.681 18.4776 115.756 17.199C126.447 16.1535 137.252 14.7529 148.104 13.3461C166.587 10.9501 185.209 8.53599 203.655 7.82655C203.853 7.81894 204.007 7.81322 204.115 7.81015C204.168 7.80865 204.221 7.80743 204.268 7.80729C204.282 7.80725 204.302 7.80728 204.324 7.80772C204.336 7.80796 204.35 7.80832 204.363 7.80886C204.382 7.8096 204.415 7.81117 204.455 7.8149L204.456 7.81504C204.481 7.81735 204.58 7.82663 204.7 7.85828C204.749 7.87092 204.916 7.91525 205.102 8.02916C205.228 8.1061 205.866 8.52873 205.819 9.39167C205.78 10.1161 205.267 10.4792 205.194 10.531L205.19 10.5334C205.048 10.635 204.92 10.6873 204.876 10.7048C204.773 10.7458 204.688 10.7663 204.664 10.7719L204.664 10.772C204.628 10.7807 204.598 10.7865 204.58 10.7899C204.519 10.8014 204.455 10.8096 204.422 10.8139C204.341 10.8245 204.222 10.8381 204.091 10.8532L204.084 10.854C203.538 10.9167 202.524 11.0334 201.353 11.2254C201.039 11.2768 200.718 11.3331 200.394 11.3946C206.414 11.4801 212.477 11.3762 218.509 11.2407C224.188 11.1131 229.864 10.3343 235.624 9.54414C235.865 9.51121 236.105 9.47826 236.345 9.44533C242.32 8.62686 248.384 7.82544 254.448 7.82544C255.276 7.82544 255.948 8.49701 255.948 9.32544C255.948 10.1539 255.276 10.8254 254.448 10.8254C248.618 10.8254 242.748 11.5962 236.752 12.4176C236.494 12.453 236.235 12.4885 235.976 12.524C230.261 13.3083 224.431 14.1084 218.576 14.2399C211.573 14.3973 204.473 14.5135 197.431 14.3374C197.371 14.3359 197.301 14.3345 197.223 14.333C196.716 14.3229 195.86 14.3059 195.168 14.2085C194.83 14.161 194.231 14.0613 193.759 13.7541C193.497 13.5842 193.032 13.1894 192.946 12.4914C192.891 12.0434 193.018 11.6749 193.172 11.4064C178.361 12.4469 163.546 14.3695 148.719 16.2936C137.836 17.7058 126.947 19.119 116.048 20.1848C103.001 21.4606 81.1364 23.5847 66.791 24.1909C66.1276 24.2189 65.4524 24.2736 64.7405 24.3312L64.7365 24.3315C64.0333 24.3885 63.2943 24.4483 62.5536 24.4789C61.074 24.54 59.4884 24.4909 57.9187 24.0351C57.7035 23.9726 57.0293 23.7473 56.74 23.0065C56.4256 22.2019 56.8466 21.5604 56.992 21.3676C57.1748 21.1252 57.3969 20.9466 57.5492 20.8344C57.7191 20.7093 57.9036 20.5944 58.0797 20.493C58.7654 20.0983 59.6625 19.7179 60.1445 19.5342C72.4849 14.8331 85.4228 11.6878 98.3954 8.9312C102.482 8.06278 106.565 7.23416 110.635 6.40827C111.664 6.19945 112.693 5.99081 113.72 5.78175ZM59.2965 23.2749C59.2966 23.2747 59.2985 23.273 59.3025 23.2698C59.2985 23.2734 59.2964 23.275 59.2965 23.2749Z" fill="#313131"/>
</svg>
