<svg width="256" height="25" viewBox="0 0 256 25" fill="none" xmlns="http://www.w3.org/2000/svg">
<path fill-rule="evenodd" clip-rule="evenodd" d="M113.72 6.2295C77.0073 10.2229 71.3326 10.8577 65.6558 11.4728C59.245 12.1674 52.8315 12.8368 1.71171 18.2896C0.887958 18.3775 0.148943 17.7809 0.0610756 16.9572C-0.0267915 16.1334 0.569763 15.3944 1.39352 15.3065C52.5115 9.85393 58.9239 9.18465 65.3335 8.49017C71.1184 7.86338 76.901 7.21608 115.544 3.01334C117.349 2.81707 119.993 2.49341 122.867 2.14151C125.789 1.78384 128.949 1.39701 131.708 1.08512C134.389 0.782083 136.703 0.548741 137.911 0.507028C138.201 0.496996 138.511 0.494248 138.764 0.522552L138.772 0.5234C138.854 0.53242 139.161 0.566093 139.463 0.733173C139.619 0.819182 140.067 1.10178 140.217 1.71173C140.38 2.37475 140.064 2.86531 139.908 3.05405C139.749 3.24696 139.578 3.35991 139.501 3.40797C139.407 3.46674 139.318 3.51061 139.25 3.54142C139.115 3.60313 138.969 3.65601 138.831 3.70123C138.552 3.79339 138.182 3.89542 137.73 4.00841C129.01 6.18863 120.074 8.00195 111.151 9.81276C107.098 10.6354 103.046 11.4576 99.0189 12.3134C86.9814 14.8714 75.0961 17.7408 63.735 21.8492C63.9847 21.8303 64.2375 21.8099 64.4944 21.7891L64.5259 21.7865C65.2185 21.7304 65.9427 21.6718 66.6644 21.6413C80.9089 21.0394 102.681 18.9254 115.756 17.6468C126.447 16.6012 137.252 15.2007 148.104 13.7938C166.587 11.3979 185.209 8.98375 203.655 8.2743C203.853 8.26669 204.007 8.26097 204.115 8.2579C204.168 8.2564 204.221 8.25518 204.268 8.25505C204.282 8.25501 204.302 8.25504 204.324 8.25547C204.336 8.25571 204.35 8.25607 204.363 8.25661C204.382 8.25736 204.415 8.25892 204.455 8.26265L204.456 8.26279C204.481 8.2651 204.58 8.27439 204.7 8.30604C204.749 8.31867 204.916 8.36301 205.102 8.47691C205.228 8.55386 205.866 8.97649 205.819 9.83942C205.78 10.5639 205.267 10.9269 205.194 10.9787L205.19 10.9811C205.048 11.0828 204.92 11.1351 204.876 11.1526C204.773 11.1936 204.688 11.2141 204.664 11.2196L204.664 11.2198C204.628 11.2284 204.598 11.2343 204.58 11.2376C204.519 11.2491 204.455 11.2574 204.422 11.2617C204.341 11.2722 204.222 11.2858 204.091 11.3009L204.084 11.3017C203.538 11.3645 202.524 11.4812 201.353 11.6732C201.039 11.7246 200.718 11.7809 200.394 11.8423C206.414 11.9278 212.477 11.824 218.509 11.6884C224.188 11.5608 229.864 10.7821 235.624 9.9919C235.865 9.95896 236.105 9.92601 236.345 9.89308C242.32 9.07461 248.384 8.27319 254.448 8.27319C255.276 8.27319 255.948 8.94477 255.948 9.77319C255.948 10.6016 255.276 11.2732 254.448 11.2732C248.618 11.2732 242.748 12.044 236.752 12.8653C236.494 12.9007 236.235 12.9362 235.976 12.9718C230.261 13.756 224.431 14.5561 218.576 14.6877C211.573 14.8451 204.473 14.9612 197.431 14.7852C197.371 14.7837 197.301 14.7823 197.223 14.7807C196.716 14.7707 195.86 14.7537 195.168 14.6562C194.83 14.6087 194.231 14.5091 193.759 14.2018C193.497 14.032 193.032 13.6372 192.946 12.9392C192.891 12.4911 193.018 12.1226 193.172 11.8542C178.361 12.8947 163.546 14.8172 148.719 16.7413C137.836 18.1536 126.947 19.5667 116.048 20.6326C103.001 21.9084 81.1364 24.0325 66.791 24.6386C66.1276 24.6666 65.4524 24.7213 64.7405 24.779L64.7365 24.7793C64.0333 24.8362 63.2943 24.896 62.5536 24.9266C61.074 24.9877 59.4884 24.9386 57.9187 24.4829C57.7035 24.4204 57.0293 24.1951 56.74 23.4543C56.4256 22.6497 56.8466 22.0081 56.992 21.8154C57.1748 21.5729 57.3969 21.3943 57.5492 21.2822C57.7191 21.1571 57.9036 21.0421 58.0797 20.9407C58.7654 20.546 59.6625 20.1656 60.1445 19.982C72.4849 15.2809 85.4228 12.1356 98.3954 9.37895C102.482 8.51054 106.565 7.68191 110.635 6.85602C111.664 6.64721 112.693 6.43857 113.72 6.2295ZM59.2965 23.7226C59.2966 23.7224 59.2985 23.7208 59.3025 23.7175C59.2985 23.7211 59.2964 23.7228 59.2965 23.7226Z" fill="#313131"/>
</svg>
