<svg width="256" height="25" viewBox="0 0 256 25" fill="none" xmlns="http://www.w3.org/2000/svg">
<path fill-rule="evenodd" clip-rule="evenodd" d="M113.772 6.0056C77.0598 9.99901 71.3851 10.6338 65.7083 11.2489C59.2975 11.9435 52.884 12.6129 1.7642 18.0657C0.940448 18.1536 0.201433 17.557 0.113566 16.7333C0.0256987 15.9095 0.622253 15.1705 1.44601 15.0826C52.5639 9.63004 58.9763 8.96075 65.386 8.26627C71.1709 7.63949 76.9535 6.99219 115.597 2.78944C117.402 2.59317 120.045 2.26951 122.92 1.91761C125.841 1.55995 129.001 1.17311 131.76 0.861223C134.441 0.558187 136.755 0.324845 137.963 0.283132C138.254 0.2731 138.564 0.270352 138.816 0.298656L138.824 0.299504C138.906 0.308524 139.213 0.342197 139.516 0.509277C139.671 0.595286 140.119 0.877881 140.27 1.48784C140.433 2.15085 140.116 2.64142 139.961 2.83015C139.802 3.02306 139.63 3.13601 139.553 3.18408C139.459 3.24285 139.37 3.28672 139.303 3.31753C139.167 3.37923 139.021 3.43212 138.884 3.47733C138.605 3.5695 138.235 3.67152 137.783 3.78451C129.062 5.96473 120.127 7.77806 111.204 9.58887C107.15 10.4116 103.099 11.2337 99.0714 12.0895C87.0339 14.6475 75.1486 17.5169 63.7875 21.6253C64.0372 21.6064 64.29 21.586 64.5468 21.5652L64.5784 21.5626C65.271 21.5065 65.9952 21.4479 66.7169 21.4174C80.9614 20.8155 102.734 18.7015 115.808 17.4229C126.5 16.3773 137.304 14.9768 148.156 13.5699C166.639 11.174 185.262 8.75985 203.707 8.0504C203.905 8.0428 204.06 8.03708 204.168 8.034C204.221 8.03251 204.274 8.03129 204.32 8.03115C204.335 8.03111 204.354 8.03114 204.377 8.03158C204.389 8.03182 204.402 8.03218 204.416 8.03272C204.435 8.03346 204.467 8.03502 204.507 8.03875L204.509 8.0389C204.533 8.0412 204.632 8.05049 204.753 8.08214C204.801 8.09478 204.968 8.13911 205.155 8.25302C205.281 8.32996 205.919 8.75259 205.872 9.61553C205.833 10.34 205.32 10.703 205.246 10.7548L205.243 10.7572C205.1 10.8589 204.972 10.9112 204.928 10.9287C204.826 10.9697 204.74 10.9902 204.717 10.9957L204.716 10.9959C204.68 11.0045 204.65 11.0104 204.632 11.0137C204.571 11.0252 204.508 11.0335 204.475 11.0378C204.393 11.0483 204.275 11.0619 204.143 11.077L204.136 11.0778C203.591 11.1406 202.576 11.2573 201.405 11.4493C201.092 11.5007 200.77 11.557 200.446 11.6184C206.466 11.7039 212.529 11.6001 218.562 11.4645C224.24 11.3369 229.917 10.5582 235.677 9.768C235.917 9.73507 236.157 9.70211 236.398 9.66919C242.372 8.85071 248.437 8.0493 254.5 8.0493C255.329 8.0493 256 8.72087 256 9.5493C256 10.3777 255.329 11.0493 254.5 11.0493C248.671 11.0493 242.801 11.8201 236.805 12.6414C236.546 12.6768 236.288 12.7123 236.029 12.7479C230.314 13.5321 224.483 14.3322 218.629 14.4638C211.625 14.6212 204.525 14.7373 197.483 14.5613C197.424 14.5598 197.354 14.5584 197.276 14.5568C196.769 14.5468 195.912 14.5298 195.22 14.4323C194.883 14.3848 194.284 14.2852 193.811 13.9779C193.55 13.8081 193.084 13.4133 192.998 12.7153C192.943 12.2672 193.07 11.8987 193.224 11.6303C178.414 12.6708 163.599 14.5933 148.772 16.5174C137.889 17.9297 126.999 19.3428 116.1 20.4087C103.054 21.6845 81.1889 23.8086 66.8435 24.4147C66.1801 24.4427 65.5049 24.4974 64.793 24.5551L64.789 24.5554C64.0858 24.6123 63.3468 24.6721 62.606 24.7027C61.1265 24.7638 59.5409 24.7147 57.9712 24.259C57.7559 24.1965 57.0818 23.9712 56.7924 23.2304C56.4781 22.4258 56.8991 21.7842 57.0445 21.5915C57.2273 21.349 57.4494 21.1704 57.6017 21.0583C57.7716 20.9332 57.9561 20.8182 58.1322 20.7168C58.8179 20.3221 59.715 19.9417 60.197 19.7581C72.5374 15.057 85.4753 11.9117 98.4478 9.15505C102.535 8.28664 106.618 7.45802 110.688 6.63213C111.717 6.42331 112.745 6.21467 113.772 6.0056ZM59.349 23.4987C59.3491 23.4986 59.351 23.4969 59.355 23.4936C59.351 23.4972 59.3489 23.4989 59.349 23.4987Z" fill="#F8F8F8"/>
</svg>
