<svg width="100" height="60" viewBox="0 0 100 60" fill="none" xmlns="http://www.w3.org/2000/svg">
<path fill-rule="evenodd" clip-rule="evenodd" d="M72.1015 56.4179C81.0298 56.6304 90.1538 56.2055 98.6907 59.2185C99.1995 59.3962 99.7592 59.1374 99.9432 58.6352C100.123 58.133 99.861 57.5807 99.3521 57.3991C90.6156 54.3165 81.2842 54.7028 72.1484 54.4865C71.6083 54.471 71.1582 54.896 71.1464 55.429C71.1308 55.9621 71.5613 56.4025 72.1015 56.4179Z" fill="#F8F8F8"/>
<path fill-rule="evenodd" clip-rule="evenodd" d="M71.2992 43.6255C74.0822 41.0984 77.1196 39.2052 80.7911 38.2669C81.3156 38.1332 81.6287 37.6059 81.4956 37.0899C81.3586 36.5738 80.8224 36.2636 80.3018 36.3973C76.3093 37.4171 73.0018 39.4574 69.9762 42.2035C69.5769 42.5643 69.5495 43.1758 69.9174 43.5683C70.2815 43.9604 70.9038 43.9862 71.2992 43.6255Z" fill="#F8F8F8"/>
<path fill-rule="evenodd" clip-rule="evenodd" d="M63.557 16.0356C64.833 11.7189 67.3459 8.34196 71.1975 5.90333C71.6516 5.61555 71.7846 5.01759 71.4911 4.56911C71.2014 4.12063 70.5947 3.99005 70.1406 4.27784C65.8781 6.97798 63.0912 10.7149 61.6781 15.4944C61.5255 16.0059 61.8269 16.5428 62.3436 16.692C62.8642 16.8414 63.4082 16.5471 63.557 16.0356Z" fill="#F8F8F8"/>
<path fill-rule="evenodd" clip-rule="evenodd" d="M19.5808 10.1771C18.8214 11.059 18.1403 12.0093 17.561 13.021C17.3027 13.4714 16.8486 14.4286 16.7782 15.2495C16.6999 16.124 17.0013 16.8618 17.7763 17.2504C18.8057 17.7657 19.6277 17.7121 20.2618 17.4003C20.8725 17.1009 21.35 16.5126 21.6513 15.7238C22.2267 14.2161 22.1406 11.912 21.8392 10.597C22.6495 9.77192 23.538 9.02367 24.4891 8.35848C31.5739 3.40435 41.9661 5.23111 49.9628 12.6385C52.7615 15.2321 54.108 20.6787 54.8086 26.5553C55.9007 35.7053 55.2783 45.9249 55.1922 48.919C55.1726 49.6584 55.2431 50.0972 55.2822 50.1849C55.4662 50.616 55.7911 50.728 56.0181 50.7705C56.3469 50.8284 56.6091 50.7666 56.8205 50.6585C57.1062 50.5101 57.3411 50.249 57.4507 49.8461C57.5094 49.6236 57.525 49.3138 57.5172 48.9835C57.5094 48.7545 57.4624 48.5041 57.5094 48.34C57.8147 47.2885 58.1826 46.2617 58.5427 45.2277C59.7444 41.7515 61.2984 38.4939 63.0245 35.2402C68.5083 24.9016 73.812 13.9778 82.803 6.10102C83.2061 5.74757 83.2453 5.13647 82.8852 4.73782C82.529 4.33917 81.9105 4.30285 81.5035 4.65669C72.3325 12.6891 66.8839 23.8011 61.2905 34.3444C59.8227 37.1121 58.4762 39.8838 57.3567 42.7828C57.4702 37.6545 57.4272 30.5557 56.476 24.2747C55.6305 18.6886 54.0218 13.7518 51.3014 11.2305C42.5415 3.11579 31.1159 1.35549 23.3579 6.78282C22.5281 7.3638 21.7375 8.00273 21.0016 8.69573C16.9426 1.4625 8.25304 -1.4366 0.573367 2.02299C0.080177 2.24433 -0.1351 2.81758 0.0880092 3.30237C0.315033 3.78716 0.894314 4.00118 1.3875 3.77983C8.30782 0.662497 16.1558 3.44453 19.5808 10.1771ZM20.1483 12.5987C19.8313 13.0407 19.5377 13.4988 19.2637 13.9724C19.1189 14.2266 18.8683 14.7152 18.7627 15.1935C18.7392 15.3055 18.7353 15.4808 18.7353 15.562C19.0054 15.6933 19.2167 15.7567 19.3889 15.6713C19.6042 15.5662 19.7138 15.319 19.8195 15.0428C20.0857 14.3498 20.1718 13.4312 20.1483 12.5987Z" fill="#F8F8F8"/>
</svg>
