<svg width="40" height="40" viewBox="0 0 40 40" fill="none" xmlns="http://www.w3.org/2000/svg">
<path d="M19.9999 3.33331C10.8166 3.33331 3.33325 10.8166 3.33325 20C3.33325 29.1833 10.8166 36.6666 19.9999 36.6666C29.1833 36.6666 36.6666 29.1833 36.6666 20C36.6666 10.8166 29.1833 3.33331 19.9999 3.33331ZM26.7666 18.7833L20.8833 24.6666C20.6333 24.9166 20.3166 25.0333 19.9999 25.0333C19.6833 25.0333 19.3666 24.9166 19.1166 24.6666L13.2333 18.7833C12.7499 18.3 12.7499 17.5 13.2333 17.0166C13.7166 16.5333 14.5166 16.5333 14.9999 17.0166L19.9999 22.0166L24.9999 17.0166C25.4833 16.5333 26.2833 16.5333 26.7666 17.0166C27.2499 17.5 27.2499 18.2833 26.7666 18.7833Z" fill="#E33439"/>
</svg>
