<svg width="48" height="48" viewBox="0 0 48 48" fill="none" xmlns="http://www.w3.org/2000/svg">
<path fill-rule="evenodd" clip-rule="evenodd" d="M24 30C27.3137 30 30 27.3137 30 24C30 20.6863 27.3137 18 24 18C20.6863 18 18 20.6863 18 24C18 27.3137 20.6863 30 24 30ZM24 28C26.2091 28 28 26.2091 28 24C28 21.7909 26.2091 20 24 20C21.7909 20 20 21.7909 20 24C20 26.2091 21.7909 28 24 28Z" fill="#F8F8F8"/>
<path d="M30 17C29.4477 17 29 17.4477 29 18C29 18.5523 29.4477 19 30 19C30.5523 19 31 18.5523 31 18C31 17.4477 30.5523 17 30 17Z" fill="#F8F8F8"/>
<path fill-rule="evenodd" clip-rule="evenodd" d="M13.654 16.2761C13 17.5595 13 19.2397 13 22.6V25.4C13 28.7603 13 30.4405 13.654 31.7239C14.2292 32.8529 15.1471 33.7708 16.2761 34.346C17.5595 35 19.2397 35 22.6 35H25.4C28.7603 35 30.4405 35 31.7239 34.346C32.8529 33.7708 33.7708 32.8529 34.346 31.7239C35 30.4405 35 28.7603 35 25.4V22.6C35 19.2397 35 17.5595 34.346 16.2761C33.7708 15.1471 32.8529 14.2292 31.7239 13.654C30.4405 13 28.7603 13 25.4 13H22.6C19.2397 13 17.5595 13 16.2761 13.654C15.1471 14.2292 14.2292 15.1471 13.654 16.2761ZM25.4 15H22.6C20.8868 15 19.7223 15.0016 18.8221 15.0751C17.9452 15.1467 17.4968 15.2766 17.184 15.436C16.4314 15.8195 15.8195 16.4314 15.436 17.184C15.2766 17.4968 15.1467 17.9452 15.0751 18.8221C15.0016 19.7223 15 20.8868 15 22.6V25.4C15 27.1132 15.0016 28.2777 15.0751 29.1779C15.1467 30.0548 15.2766 30.5032 15.436 30.816C15.8195 31.5686 16.4314 32.1805 17.184 32.564C17.4968 32.7234 17.9452 32.8533 18.8221 32.9249C19.7223 32.9984 20.8868 33 22.6 33H25.4C27.1132 33 28.2777 32.9984 29.1779 32.9249C30.0548 32.8533 30.5032 32.7234 30.816 32.564C31.5686 32.1805 32.1805 31.5686 32.564 30.816C32.7234 30.5032 32.8533 30.0548 32.9249 29.1779C32.9984 28.2777 33 27.1132 33 25.4V22.6C33 20.8868 32.9984 19.7223 32.9249 18.8221C32.8533 17.9452 32.7234 17.4968 32.564 17.184C32.1805 16.4314 31.5686 15.8195 30.816 15.436C30.5032 15.2766 30.0548 15.1467 29.1779 15.0751C28.2777 15.0016 27.1132 15 25.4 15Z" fill="#F8F8F8"/>
</svg>
