<svg width="120" height="121" viewBox="0 0 120 121" fill="none" xmlns="http://www.w3.org/2000/svg">
<g clip-path="url(#clip0_201_1047)">
<path d="M97.0851 33.8428C102.235 39.3128 105 45.4478 105 55.3928C105 72.8928 92.7151 88.5778 74.8501 96.3328L70.3851 89.4428C87.0601 80.4228 90.3201 68.7178 91.6201 61.3378C88.9351 62.7278 85.4201 63.2128 81.9751 62.8928C72.9551 62.0578 65.8451 54.6528 65.8451 45.4478C65.8451 40.8065 67.6888 36.3553 70.9707 33.0734C74.2526 29.7915 78.7038 27.9478 83.3451 27.9478C88.7101 27.9478 93.8401 30.3978 97.0851 33.8428ZM47.0851 33.8428C52.2351 39.3128 55.0001 45.4478 55.0001 55.3928C55.0001 72.8928 42.7151 88.5778 24.8501 96.3328L20.3851 89.4428C37.0601 80.4228 40.3201 68.7178 41.6201 61.3378C38.9351 62.7278 35.4201 63.2128 31.9751 62.8928C22.9551 62.0578 15.8501 54.6528 15.8501 45.4478C15.8501 40.8065 17.6938 36.3553 20.9757 33.0734C24.2576 29.7915 28.7088 27.9478 33.3501 27.9478C38.7151 27.9478 43.8451 30.3978 47.0901 33.8428H47.0851Z" fill="#313131"/>
</g>
<defs>
<clipPath id="clip0_201_1047">
<rect width="120" height="120" fill="white" transform="translate(0 0.447754)"/>
</clipPath>
</defs>
</svg>
