<svg width="68" height="74" viewBox="0 0 68 74" fill="none" xmlns="http://www.w3.org/2000/svg">
<path fill-rule="evenodd" clip-rule="evenodd" d="M44.6 69.0278C51 67.2318 57.7005 66.3258 64.2005 65.4958C65.6005 65.3218 66.9003 66.2928 67.0003 67.6608C67.2003 69.0298 66.1998 70.2817 64.8998 70.4557C58.5998 71.2548 52.1003 72.1097 46.0003 73.8387C44.7003 74.2137 43.2998 73.4418 42.8998 72.1138C42.4998 70.7868 43.3 69.4038 44.6 69.0278Z" fill="#313131"/>
<path fill-rule="evenodd" clip-rule="evenodd" d="M25.2008 43.5649C35.5008 33.0539 47.1008 23.8959 57.2008 13.1029C58.1008 12.0949 59.7008 12.0409 60.7008 12.9819C61.7008 13.9239 61.8004 15.5079 60.8004 16.5159C50.7004 27.3399 39.1004 36.5279 28.8004 47.0699C27.8004 48.0539 26.2008 48.0679 25.2008 47.0999C24.3008 46.1329 24.2008 44.5489 25.2008 43.5649Z" fill="#313131"/>
<path fill-rule="evenodd" clip-rule="evenodd" d="M5.89944 3.13576C5.59944 9.15176 5.30002 15.1678 5.00002 21.1848C5.00002 22.5628 3.79944 23.6268 2.39944 23.5598C0.999436 23.4918 2.24113e-05 22.3188 2.24113e-05 20.9398C0.300022 14.9138 0.599436 8.88876 0.899436 2.86376C0.999436 1.48576 2.19963 0.428757 3.59963 0.503757C4.89963 0.578757 5.99944 1.75876 5.89944 3.13576Z" fill="#313131"/>
</svg>
