<svg width="48" height="48" viewBox="0 0 48 48" fill="none" xmlns="http://www.w3.org/2000/svg">
<path fill-rule="evenodd" clip-rule="evenodd" d="M19.548 33.5997C28.6044 33.5997 33.558 26.2119 33.558 19.8061C33.558 19.5958 33.558 19.3871 33.5436 19.1791C34.5072 18.4939 35.3388 17.6431 36 16.6696C35.1024 17.0618 34.1484 17.3191 33.1728 17.4325C34.2 16.8264 34.9692 15.8742 35.3376 14.7506C34.3704 15.3154 33.3132 15.7139 32.2104 15.9278C30.3456 13.976 27.2268 13.8815 25.2432 15.7174C23.9652 16.9012 23.4216 18.6663 23.8188 20.3499C19.86 20.1537 16.1712 18.3131 13.6704 15.285C12.3636 17.5002 13.032 20.333 15.1956 21.7555C14.412 21.7331 13.6452 21.5254 12.96 21.1497V21.2112C12.9612 23.5186 14.6136 25.5053 16.9104 25.9625C16.1856 26.1575 15.4248 26.1858 14.688 26.0452C15.3324 28.0206 17.1816 29.3736 19.2876 29.4125C17.544 30.7618 15.39 31.4944 13.1724 31.492C12.7812 31.4909 12.39 31.4684 12 31.4223C14.2524 32.8448 16.872 33.5997 19.548 33.5961" fill="#F8F8F8"/>
</svg>
