<svg width="256" height="25" viewBox="0 0 256 25" fill="none" xmlns="http://www.w3.org/2000/svg">
<path fill-rule="evenodd" clip-rule="evenodd" d="M113.72 5.7295C77.0073 9.7229 71.3326 10.3577 65.6558 10.9728C59.245 11.6674 52.8315 12.3368 1.71171 17.7896C0.887958 17.8775 0.148943 17.2809 0.0610756 16.4572C-0.0267915 15.6334 0.569763 14.8944 1.39352 14.8065C52.5115 9.35393 58.9239 8.68465 65.3335 7.99017C71.1184 7.36338 76.901 6.71608 115.544 2.51334C117.349 2.31707 119.993 1.99341 122.867 1.64151C125.789 1.28384 128.949 0.897006 131.708 0.585119C134.389 0.282083 136.703 0.0487411 137.911 0.00702759C138.201 -0.00300387 138.511 -0.00575164 138.764 0.0225523L138.772 0.0234004C138.854 0.03242 139.161 0.0660934 139.463 0.233173C139.619 0.319182 140.067 0.601777 140.217 1.21173C140.38 1.87475 140.064 2.36531 139.908 2.55405C139.749 2.74696 139.578 2.85991 139.501 2.90797C139.407 2.96674 139.318 3.01061 139.25 3.04142C139.115 3.10313 138.969 3.15601 138.831 3.20123C138.552 3.29339 138.182 3.39542 137.73 3.50841C129.01 5.68863 120.074 7.50195 111.151 9.31276C107.098 10.1354 103.046 10.9576 99.0189 11.8134C86.9814 14.3714 75.0961 17.2408 63.735 21.3492C63.9847 21.3303 64.2375 21.3099 64.4944 21.2891L64.5259 21.2865C65.2185 21.2304 65.9427 21.1718 66.6644 21.1413C80.9089 20.5394 102.681 18.4254 115.756 17.1468C126.447 16.1012 137.252 14.7007 148.104 13.2938C166.587 10.8979 185.209 8.48375 203.655 7.7743C203.853 7.76669 204.007 7.76097 204.115 7.7579C204.168 7.7564 204.221 7.75518 204.268 7.75505C204.282 7.75501 204.302 7.75504 204.324 7.75547C204.336 7.75571 204.35 7.75607 204.363 7.75661C204.382 7.75736 204.415 7.75892 204.455 7.76265L204.456 7.76279C204.481 7.7651 204.58 7.77439 204.7 7.80604C204.749 7.81867 204.916 7.86301 205.102 7.97691C205.228 8.05386 205.866 8.47649 205.819 9.33942C205.78 10.0639 205.267 10.4269 205.194 10.4787L205.19 10.4811C205.048 10.5828 204.92 10.6351 204.876 10.6526C204.773 10.6936 204.688 10.7141 204.664 10.7196L204.664 10.7198C204.628 10.7284 204.598 10.7343 204.58 10.7376C204.519 10.7491 204.455 10.7574 204.422 10.7617C204.341 10.7722 204.222 10.7858 204.091 10.8009L204.084 10.8017C203.538 10.8645 202.524 10.9812 201.353 11.1732C201.039 11.2246 200.718 11.2809 200.394 11.3423C206.414 11.4278 212.477 11.324 218.509 11.1884C224.188 11.0608 229.864 10.2821 235.624 9.4919C235.865 9.45896 236.105 9.42601 236.345 9.39308C242.32 8.57461 248.384 7.77319 254.448 7.77319C255.276 7.77319 255.948 8.44477 255.948 9.27319C255.948 10.1016 255.276 10.7732 254.448 10.7732C248.618 10.7732 242.748 11.544 236.752 12.3653C236.494 12.4007 236.235 12.4362 235.976 12.4718C230.261 13.256 224.431 14.0561 218.576 14.1877C211.573 14.3451 204.473 14.4612 197.431 14.2852C197.371 14.2837 197.301 14.2823 197.223 14.2807C196.716 14.2707 195.86 14.2537 195.168 14.1562C194.83 14.1087 194.231 14.0091 193.759 13.7018C193.497 13.532 193.032 13.1372 192.946 12.4392C192.891 11.9911 193.018 11.6226 193.172 11.3542C178.361 12.3947 163.546 14.3172 148.719 16.2413C137.836 17.6536 126.947 19.0667 116.048 20.1326C103.001 21.4084 81.1364 23.5325 66.791 24.1386C66.1276 24.1666 65.4524 24.2213 64.7405 24.279L64.7365 24.2793C64.0333 24.3362 63.2943 24.396 62.5536 24.4266C61.074 24.4877 59.4884 24.4386 57.9187 23.9829C57.7035 23.9204 57.0293 23.6951 56.74 22.9543C56.4256 22.1497 56.8466 21.5081 56.992 21.3154C57.1748 21.0729 57.3969 20.8943 57.5492 20.7822C57.7191 20.6571 57.9036 20.5421 58.0797 20.4407C58.7654 20.046 59.6625 19.6656 60.1445 19.482C72.4849 14.7809 85.4228 11.6356 98.3954 8.87895C102.482 8.01054 106.565 7.18191 110.635 6.35602C111.664 6.14721 112.693 5.93857 113.72 5.7295ZM59.2965 23.2226C59.2966 23.2224 59.2985 23.2208 59.3025 23.2175C59.2985 23.2211 59.2964 23.2228 59.2965 23.2226Z" fill="#313131"/>
</svg>
