<svg width="256" height="25" viewBox="0 0 256 25" fill="none" xmlns="http://www.w3.org/2000/svg">
<path fill-rule="evenodd" clip-rule="evenodd" d="M113.72 6.17725C77.0073 10.1707 71.3326 10.8055 65.6558 11.4206C59.245 12.1152 52.8315 12.7846 1.71171 18.2373C0.887958 18.3252 0.148943 17.7287 0.0610756 16.9049C-0.0267915 16.0812 0.569763 15.3421 1.39352 15.2543C52.5115 9.80169 58.9239 9.1324 65.3335 8.43792C71.1184 7.81114 76.901 7.16384 115.544 2.96109C117.349 2.76482 119.993 2.44116 122.867 2.08926C125.789 1.7316 128.949 1.34476 131.708 1.03287C134.389 0.729837 136.703 0.496495 137.911 0.454781C138.201 0.44475 138.511 0.442002 138.764 0.470306L138.772 0.471154C138.854 0.480174 139.161 0.513847 139.463 0.680927C139.619 0.766936 140.067 1.04953 140.217 1.65949C140.38 2.3225 140.064 2.81307 139.908 3.0018C139.749 3.19471 139.578 3.30766 139.501 3.35573C139.407 3.4145 139.318 3.45837 139.25 3.48918C139.115 3.55088 138.969 3.60377 138.831 3.64898C138.552 3.74115 138.182 3.84317 137.73 3.95616C129.01 6.13638 120.074 7.94971 111.151 9.76052C107.098 10.5832 103.046 11.4054 99.0189 12.2612C86.9814 14.8191 75.0961 17.6885 63.735 21.7969C63.9847 21.778 64.2375 21.7576 64.4944 21.7368L64.5259 21.7343C65.2185 21.6782 65.9427 21.6195 66.6644 21.589C80.9089 20.9872 102.681 18.8731 115.756 17.5946C126.447 16.549 137.252 15.1484 148.104 13.7416C166.587 11.3456 185.209 8.9315 203.655 8.22205C203.853 8.21445 204.007 8.20873 204.115 8.20565C204.168 8.20416 204.221 8.20294 204.268 8.2028C204.282 8.20276 204.302 8.20279 204.324 8.20323C204.336 8.20347 204.35 8.20383 204.363 8.20437C204.382 8.20511 204.415 8.20667 204.455 8.2104L204.456 8.21055C204.481 8.21285 204.58 8.22214 204.7 8.25379C204.749 8.26643 204.916 8.31076 205.102 8.42467C205.228 8.50161 205.866 8.92424 205.819 9.78718C205.78 10.5116 205.267 10.8747 205.194 10.9265L205.19 10.9289C205.048 11.0305 204.92 11.0828 204.876 11.1003C204.773 11.1413 204.688 11.1618 204.664 11.1674L204.664 11.1676C204.628 11.1762 204.598 11.1821 204.58 11.1854C204.519 11.1969 204.455 11.2051 204.422 11.2094C204.341 11.22 204.222 11.2336 204.091 11.2487L204.084 11.2495C203.538 11.3122 202.524 11.4289 201.353 11.6209C201.039 11.6723 200.718 11.7286 200.394 11.7901C206.414 11.8756 212.477 11.7717 218.509 11.6362C224.188 11.5086 229.864 10.7299 235.624 9.93965C235.865 9.90672 236.105 9.87376 236.345 9.84084C242.32 9.02236 248.384 8.22095 254.448 8.22095C255.276 8.22095 255.948 8.89252 255.948 9.72095C255.948 10.5494 255.276 11.2209 254.448 11.2209C248.618 11.2209 242.748 11.9917 236.752 12.8131C236.494 12.8485 236.235 12.884 235.976 12.9195C230.261 13.7038 224.431 14.5039 218.576 14.6354C211.573 14.7928 204.473 14.909 197.431 14.7329C197.371 14.7314 197.301 14.73 197.223 14.7285C196.716 14.7184 195.86 14.7014 195.168 14.604C194.83 14.5565 194.231 14.4568 193.759 14.1496C193.497 13.9797 193.032 13.5849 192.946 12.8869C192.891 12.4389 193.018 12.0704 193.172 11.8019C178.361 12.8424 163.546 14.765 148.719 16.6891C137.836 18.1014 126.947 19.5145 116.048 20.5803C103.001 21.8562 81.1364 23.9802 66.791 24.5864C66.1276 24.6144 65.4524 24.6691 64.7405 24.7267L64.7365 24.727C64.0333 24.784 63.2943 24.8438 62.5536 24.8744C61.074 24.9355 59.4884 24.8864 57.9187 24.4306C57.7035 24.3682 57.0293 24.1429 56.74 23.402C56.4256 22.5974 56.8466 21.9559 56.992 21.7632C57.1748 21.5207 57.3969 21.3421 57.5492 21.2299C57.7191 21.1048 57.9036 20.9899 58.0797 20.8885C58.7654 20.4938 59.6625 20.1134 60.1445 19.9298C72.4849 15.2287 85.4228 12.0833 98.3954 9.3267C102.482 8.45829 106.565 7.62967 110.635 6.80378C111.664 6.59496 112.693 6.38632 113.72 6.17725ZM59.2965 23.6704C59.2966 23.6702 59.2985 23.6685 59.3025 23.6653C59.2985 23.6689 59.2964 23.6706 59.2965 23.6704Z" fill="#F8F8F8"/>
</svg>
