<svg width="48" height="48" viewBox="0 0 48 48" fill="none" xmlns="http://www.w3.org/2000/svg">
<path d="M35.2469 24.0673C35.2462 17.8565 30.2114 12.8218 23.9999 12.8218C17.7884 12.8218 12.7529 17.8573 12.7529 24.0688C12.7529 29.66 16.8329 34.298 22.1774 35.1688L22.2419 35.1778V27.3193H19.3859V24.0673H22.2419V21.5908C22.2277 21.4655 22.2202 21.32 22.2202 21.173C22.2202 18.9808 23.9977 17.2033 26.1899 17.2033C26.2957 17.2033 26.4007 17.2078 26.5049 17.2153L26.4914 17.2145C27.3907 17.2273 28.2607 17.3068 29.1097 17.4485L29.0092 17.4343V20.2018H27.5902C27.5257 20.1928 27.4514 20.1875 27.3764 20.1875C26.4787 20.1875 25.7504 20.915 25.7504 21.8135C25.7504 21.8645 25.7527 21.9148 25.7572 21.965L25.7564 21.9583V24.0673H28.8757L28.3769 27.3193H25.7564V35.1778C31.1662 34.2973 35.2462 29.6585 35.2469 24.0673Z" fill="#F8F8F8"/>
</svg>
