<svg width="120" height="121" viewBox="0 0 120 121" fill="none" xmlns="http://www.w3.org/2000/svg">
<g clip-path="url(#clip0_201_1041)">
<path d="M22.915 87.0527C17.765 81.5827 15 75.4477 15 65.5027C15 48.0027 27.285 32.3177 45.15 24.5627L49.615 31.4527C32.94 40.4727 29.68 52.1777 28.38 59.5577C31.065 58.1677 34.58 57.6827 38.025 58.0027C47.045 58.8377 54.155 66.2427 54.155 75.4477C54.155 80.089 52.3113 84.5402 49.0294 87.8221C45.7475 91.104 41.2963 92.9477 36.655 92.9477C31.29 92.9477 26.16 90.4977 22.915 87.0527ZM72.915 87.0527C67.765 81.5827 65 75.4477 65 65.5027C65 48.0027 77.285 32.3177 95.15 24.5627L99.615 31.4527C82.94 40.4727 79.68 52.1777 78.38 59.5577C81.065 58.1677 84.58 57.6827 88.025 58.0027C97.045 58.8377 104.155 66.2427 104.155 75.4477C104.155 80.089 102.311 84.5402 99.0294 87.8221C95.7475 91.104 91.2963 92.9477 86.655 92.9477C81.29 92.9477 76.16 90.4977 72.915 87.0527Z" fill="#313131"/>
</g>
<defs>
<clipPath id="clip0_201_1041">
<rect width="120" height="120" fill="white" transform="translate(0 0.447754)"/>
</clipPath>
</defs>
</svg>
