<svg width="48" height="48" viewBox="0 0 48 48" fill="none" xmlns="http://www.w3.org/2000/svg">
<path d="M32.6201 20.45C31.5701 15.83 27.5401 13.75 24.0001 13.75C24.0001 13.75 24.0001 13.75 23.9901 13.75C20.4601 13.75 16.4201 15.82 15.3701 20.44C14.2001 25.6 17.3601 29.97 20.2201 32.72C21.2801 33.74 22.6401 34.25 24.0001 34.25C25.3601 34.25 26.7201 33.74 27.7701 32.72C30.6301 29.97 33.7901 25.61 32.6201 20.45ZM24.0001 25.46C22.2601 25.46 20.8501 24.05 20.8501 22.31C20.8501 20.57 22.2601 19.16 24.0001 19.16C25.7401 19.16 27.1501 20.57 27.1501 22.31C27.1501 24.05 25.7401 25.46 24.0001 25.46Z" fill="#E33439"/>
</svg>
