<svg width="48" height="48" viewBox="0 0 48 48" fill="none" xmlns="http://www.w3.org/2000/svg">
<path fill-rule="evenodd" clip-rule="evenodd" d="M15.75 24C15.75 19.3056 19.5556 15.5 24.25 15.5C28.9444 15.5 32.75 19.3056 32.75 24C32.75 28.6944 28.9444 32.5 24.25 32.5C22.5778 32.5 21.0213 32.0182 19.708 31.1861C19.4636 31.0313 19.1641 30.9899 18.8868 31.0726L16.0077 31.9319L17.0917 29.3953C17.2199 29.0955 17.1938 28.7521 17.0219 28.4751C16.2157 27.176 15.75 25.6439 15.75 24ZM24.25 13.5C18.451 13.5 13.75 18.201 13.75 24C13.75 25.8381 14.2232 27.5683 15.0547 29.0727L13.3305 33.107C13.178 33.4637 13.2456 33.8763 13.5038 34.1657C13.762 34.4552 14.1643 34.5692 14.536 34.4582L19.0354 33.1155C20.5725 33.9965 22.3537 34.5 24.25 34.5C30.049 34.5 34.75 29.799 34.75 24C34.75 18.201 30.049 13.5 24.25 13.5ZM26.5425 26.1824L25.2283 27.1081C24.6128 26.7575 23.9323 26.2681 23.2497 25.5855C22.5401 24.8759 22.014 24.1433 21.6261 23.4713L22.4613 22.7624C22.8197 22.4582 22.9178 21.9453 22.697 21.5303L21.6328 19.5303C21.4895 19.261 21.2312 19.0718 20.9312 19.0165C20.6311 18.9613 20.3223 19.046 20.0925 19.2466L19.777 19.5219C19.0182 20.1841 18.5695 21.2723 18.9414 22.3741C19.327 23.5163 20.1498 25.314 21.8355 26.9997C23.6491 28.8133 25.4913 29.5275 26.5686 29.8049C27.4366 30.0283 28.258 29.7288 28.8368 29.2572L29.4283 28.7752C29.6813 28.5691 29.8178 28.2524 29.794 27.9269C29.7701 27.6014 29.5889 27.308 29.3085 27.1409L27.6302 26.1409C27.2912 25.939 26.8652 25.9552 26.5425 26.1824Z" fill="#F8F8F8"/>
</svg>
